<?xml version="1.0" ?><svg data-name="Capa 1" id="Capa_1" viewBox="0 0 20 19.84" xmlns="http://www.w3.org/2000/svg"><path d="M11.54,7.35h3.11A.38.38,0,0,0,15,7a.37.37,0,0,0-.37-.37H11.54a.36.36,0,0,0-.37.37A.37.37,0,0,0,11.54,7.35Z"/><path d="M8.35,12.48H5.24a.38.38,0,0,0,0,.75H8.35a.38.38,0,0,0,0-.75Z"/><path d="M17.76,3.65H2.24A.38.38,0,0,0,1.86,4V15.81a.38.38,0,0,0,.38.38H17.76a.38.38,0,0,0,.38-.38V4A.38.38,0,0,0,17.76,3.65Zm-.37,5.89H8.51V4.4h8.88ZM7.74,4.4V9.54H2.61V4.4ZM2.61,10.31h8.88v5.13H2.61Zm9.65,5.13V10.31h5.13v5.13Z"/></svg>