<?xml version="1.0" ?><!DOCTYPE svg  PUBLIC '-//W3C//DTD SVG 1.1//EN'  'http://www.w3.org/Graphics/SVG/1.1/DTD/svg11.dtd'><svg height="100%" style="fill-rule:evenodd;clip-rule:evenodd;stroke-linejoin:round;stroke-miterlimit:2;" version="1.1" viewBox="0 0 32 32" width="100%" xml:space="preserve" xmlns="http://www.w3.org/2000/svg" xmlns:serif="http://www.serif.com/" xmlns:xlink="http://www.w3.org/1999/xlink"><g transform="matrix(1,0,0,1,-50,-50)"><g id="Icon" transform="matrix(0.5,0,0,0.5,0,0)"><g transform="matrix(0.797803,0,0,0.917081,-54.3684,92.278)"><path d="M214.386,24.313L210.048,24.313C209.092,24.313 208.316,23.638 208.316,22.806L208.316,13.694C208.316,12.862 209.092,12.187 210.048,12.187L223.952,12.187C224.908,12.187 225.684,12.862 225.684,13.694L225.684,22.806C225.684,23.638 224.908,24.313 223.952,24.313L219.614,24.313L217.534,26.575C217.404,26.716 217.208,26.798 217,26.798C216.792,26.798 216.596,26.716 216.466,26.575L214.386,24.313ZM217,25.252L218.752,23.347C218.882,23.206 219.078,23.123 219.286,23.123C219.286,23.123 223.952,23.123 223.952,23.123C224.153,23.123 224.316,22.981 224.316,22.806L224.316,13.694C224.316,13.519 224.153,13.377 223.952,13.377C223.952,13.377 210.048,13.377 210.048,13.377C209.847,13.377 209.684,13.519 209.684,13.694C209.684,13.694 209.684,22.806 209.684,22.806C209.684,22.981 209.847,23.123 210.048,23.123L214.714,23.123C214.922,23.123 215.118,23.206 215.248,23.347L217,25.252Z"/></g><g transform="matrix(0.797803,0,0,0.917081,-27.8782,135.969)"><path d="M214.386,24.313L210.048,24.313C209.092,24.313 208.316,23.638 208.316,22.806L208.316,13.694C208.316,12.862 209.092,12.187 210.048,12.187C210.048,12.187 223.952,12.187 223.952,12.187C224.908,12.187 225.684,12.862 225.684,13.694C225.684,13.694 225.684,22.806 225.684,22.806C225.684,23.638 224.908,24.313 223.952,24.313L219.614,24.313L217.534,26.575C217.404,26.716 217.208,26.798 217,26.798C216.792,26.798 216.596,26.716 216.466,26.575L214.386,24.313ZM217,25.252L218.752,23.347C218.882,23.206 219.078,23.123 219.286,23.123L223.952,23.123C224.153,23.123 224.316,22.981 224.316,22.806L224.316,13.694C224.316,13.519 224.153,13.377 223.952,13.377L210.048,13.377C209.847,13.377 209.684,13.519 209.684,13.694C209.684,13.694 209.684,22.806 209.684,22.806C209.684,22.981 209.847,23.123 210.048,23.123L214.714,23.123C214.922,23.123 215.118,23.206 215.248,23.347L217,25.252Z"/></g><g transform="matrix(2.20751,0,0,2.20751,105.51,-14.7464)"><path d="M4,55.247L8,55.247C8.136,55.247 8.247,55.136 8.247,55C8.247,54.864 8.136,54.753 8,54.753L4,54.753C3.864,54.753 3.753,54.864 3.753,55C3.753,55.136 3.864,55.247 4,55.247Z"/></g><g transform="matrix(2.20751,0,0,2.20751,132,28.9446)"><path d="M4,55.247L8,55.247C8.136,55.247 8.247,55.136 8.247,55C8.247,54.864 8.136,54.753 8,54.753L4,54.753C3.864,54.753 3.753,54.864 3.753,55C3.753,55.136 3.864,55.247 4,55.247Z"/></g><g transform="matrix(2.20751,0,0,2.20751,105.51,-12.5389)"><path d="M4,55.247L8,55.247C8.136,55.247 8.247,55.136 8.247,55C8.247,54.864 8.136,54.753 8,54.753L4,54.753C3.864,54.753 3.753,54.864 3.753,55C3.753,55.136 3.864,55.247 4,55.247Z"/></g><g transform="matrix(2.20751,0,0,2.20751,132,31.1521)"><path d="M4,55.247L8,55.247C8.136,55.247 8.247,55.136 8.247,55C8.247,54.864 8.136,54.753 8,54.753L4,54.753C3.864,54.753 3.753,54.864 3.753,55C3.753,55.136 3.864,55.247 4,55.247Z"/></g><g transform="matrix(1.26144,0,0,2.20751,109.294,-10.3314)"><path d="M4,55.247L8,55.247C8.239,55.247 8.432,55.136 8.432,55C8.432,54.864 8.239,54.753 8,54.753L4,54.753C3.761,54.753 3.568,54.864 3.568,55C3.568,55.136 3.761,55.247 4,55.247Z"/></g><g transform="matrix(1.26144,0,0,2.20751,135.784,33.3596)"><path d="M4,55.247L8,55.247C8.239,55.247 8.432,55.136 8.432,55C8.432,54.864 8.239,54.753 8,54.753L4,54.753C3.761,54.753 3.568,54.864 3.568,55C3.568,55.136 3.761,55.247 4,55.247Z"/></g><g transform="matrix(2,0,0,2,0,0)"><path d="M62.686,76.788C60.881,76.786 59.282,76.383 58.289,75.774C57.621,75.363 57.22,74.851 57.15,74.31C57.143,74.285 57.139,74.259 57.139,74.232L57.139,66.428L57.139,66.424C57.14,65.82 57.551,65.244 58.289,64.791C59.284,64.181 60.887,63.777 62.697,63.777C64.506,63.777 66.11,64.181 67.104,64.791C67.844,65.245 68.255,65.823 68.255,66.428L68.255,74.042C68.255,74.058 68.253,74.074 68.251,74.089C68.253,74.105 68.255,74.121 68.255,74.137C68.255,74.742 67.844,75.32 67.104,75.774C66.11,76.384 64.506,76.788 62.697,76.788L62.686,76.788ZM67.709,72.757C67.543,72.924 67.34,73.081 67.104,73.226C66.112,73.835 64.513,74.239 62.707,74.241L62.697,74.241C60.887,74.241 59.284,73.837 58.289,73.226C58.053,73.081 57.851,72.924 57.684,72.757L57.684,74.137C57.684,74.582 58.031,74.975 58.575,75.309C59.504,75.879 61.006,76.243 62.697,76.243C64.388,76.243 65.889,75.879 66.819,75.309C67.363,74.975 67.709,74.582 67.709,74.137C67.709,74.121 67.711,74.105 67.713,74.089C67.711,74.074 67.709,74.058 67.709,74.042L67.709,72.757ZM62.686,71.767C60.881,71.765 59.282,71.362 58.289,70.753C58.053,70.608 57.851,70.45 57.684,70.283L57.684,71.59C57.684,72.035 58.031,72.428 58.575,72.761C59.504,73.332 61.006,73.695 62.697,73.695C64.388,73.695 65.889,73.332 66.819,72.761C67.363,72.428 67.709,72.035 67.709,71.59L67.709,70.283C67.543,70.45 67.34,70.608 67.104,70.753C66.11,71.363 64.506,71.767 62.697,71.767L62.686,71.767ZM57.684,67.595L57.684,69.116C57.684,69.561 58.031,69.954 58.575,70.288C59.504,70.858 61.006,71.221 62.697,71.221C64.388,71.221 65.889,70.858 66.819,70.288C67.363,69.954 67.709,69.561 67.709,69.116L67.709,67.595C67.543,67.762 67.34,67.92 67.104,68.065C66.112,68.674 64.513,69.077 62.707,69.079L62.697,69.079C60.887,69.079 59.284,68.675 58.289,68.065C58.053,67.92 57.851,67.762 57.684,67.595ZM67.709,66.428C67.709,65.983 67.363,65.59 66.819,65.256C65.889,64.686 64.388,64.322 62.697,64.322C61.006,64.322 59.504,64.686 58.575,65.256C58.031,65.59 57.684,65.983 57.684,66.428C57.684,66.873 58.031,67.266 58.575,67.6C59.504,68.17 61.006,68.534 62.697,68.534C64.388,68.534 65.889,68.17 66.819,67.6C67.363,67.266 67.709,66.873 67.709,66.428Z"/></g><g transform="matrix(2,0,0,2,0,0)"><path d="M69.028,63.807C67.135,63.805 65.459,63.383 64.418,62.744C64.16,62.586 63.941,62.413 63.762,62.23L63.762,63.001L63.217,63.001L63.217,58.215L63.217,58.211C63.219,57.581 63.648,56.98 64.418,56.508C65.461,55.868 67.142,55.445 69.039,55.445C70.936,55.445 72.617,55.868 73.66,56.508C74.43,56.98 74.859,57.581 74.861,58.211L74.861,58.215L74.861,66.209C74.861,66.226 74.86,66.243 74.857,66.259C74.86,66.275 74.861,66.292 74.861,66.309C74.861,66.94 74.431,67.543 73.66,68.016C72.617,68.656 70.936,69.079 69.039,69.079C68.888,69.079 68.766,68.957 68.766,68.806C68.766,68.656 68.888,68.534 69.039,68.534C70.817,68.534 72.397,68.151 73.374,67.551C73.95,67.198 74.316,66.78 74.316,66.309C74.316,66.292 74.317,66.275 74.32,66.259C74.317,66.243 74.316,66.226 74.316,66.209L74.316,64.827C74.137,65.01 73.918,65.183 73.66,65.341C72.617,65.981 70.936,66.404 69.039,66.404C68.888,66.404 68.766,66.282 68.766,66.132C68.766,65.981 68.888,65.859 69.039,65.859C70.817,65.859 72.397,65.476 73.374,64.876C73.95,64.523 74.316,64.106 74.316,63.634L74.316,62.23C74.137,62.413 73.918,62.586 73.66,62.744C72.617,63.384 70.936,63.807 69.039,63.807L69.028,63.807ZM74.316,59.407C74.137,59.591 73.918,59.763 73.66,59.922C72.619,60.56 70.943,60.983 69.05,60.985L69.039,60.985C67.142,60.985 65.461,60.561 64.418,59.922C64.16,59.763 63.941,59.591 63.762,59.407L63.762,61.037C63.762,61.508 64.128,61.926 64.704,62.279C65.681,62.879 67.261,63.261 69.039,63.261L69.049,63.261C70.824,63.26 72.399,62.878 73.374,62.279C73.95,61.926 74.316,61.508 74.316,61.037L74.316,59.407ZM74.316,58.212C74.314,57.742 73.949,57.325 73.374,56.973C72.397,56.373 70.817,55.99 69.039,55.99C67.261,55.99 65.681,56.373 64.704,56.973C64.128,57.326 63.762,57.743 63.762,58.215C63.762,58.686 64.128,59.103 64.704,59.457C65.681,60.057 67.261,60.439 69.039,60.439L69.049,60.439C70.824,60.438 72.399,60.055 73.374,59.457C73.95,59.103 74.316,58.686 74.316,58.215L74.316,58.212Z"/></g><g transform="matrix(2.20751,0,0,2.20751,-13.6958,-13.9254)"><path d="M59.753,60L59.753,61C59.753,61.136 59.864,61.247 60,61.247C60.136,61.247 60.247,61.136 60.247,61L60.247,60C60.247,59.864 60.136,59.753 60,59.753C59.864,59.753 59.753,59.864 59.753,60Z"/></g><g transform="matrix(2.20751,0,0,2.20751,12.7943,5.94221)"><path d="M59.753,60L59.753,61C59.753,61.136 59.864,61.247 60,61.247C60.136,61.247 60.247,61.136 60.247,61L60.247,60C60.247,59.864 60.136,59.753 60,59.753C59.864,59.753 59.753,59.864 59.753,60Z"/></g><g transform="matrix(2.20751,0,0,2.20751,-13.6958,-9.50153)"><path d="M59.753,60L59.753,61C59.753,61.136 59.864,61.247 60,61.247C60.136,61.247 60.247,61.136 60.247,61L60.247,60C60.247,59.864 60.136,59.753 60,59.753C59.864,59.753 59.753,59.864 59.753,60Z"/></g><g transform="matrix(2.20751,0,0,2.20751,12.7943,10.3661)"><path d="M59.753,60L59.753,61C59.753,61.136 59.864,61.247 60,61.247C60.136,61.247 60.247,61.136 60.247,61L60.247,60C60.247,59.864 60.136,59.753 60,59.753C59.864,59.753 59.753,59.864 59.753,60Z"/></g></g></g></svg>